<mxfile host="65bd71144e">
    <diagram id="NC1hEWJh8_QtpdpS8o8B" name="Page-1">
        <mxGraphModel dx="852" dy="842" grid="1" gridSize="10" guides="1" tooltips="1" connect="1" arrows="1" fold="1" page="1" pageScale="1" pageWidth="850" pageHeight="1100" math="0" shadow="0">
            <root>
                <mxCell id="0"/>
                <mxCell id="1" parent="0"/>
                <mxCell id="21" value="" style="rounded=0;whiteSpace=wrap;html=1;" vertex="1" parent="1">
                    <mxGeometry x="120" y="90" width="540" height="380" as="geometry"/>
                </mxCell>
                <mxCell id="12" value="Windows PC" style="rounded=0;whiteSpace=wrap;html=1;strokeWidth=2;fontSize=18;fillColor=#E6E6E6;verticalAlign=top;" parent="1" vertex="1">
                    <mxGeometry x="160" y="120" width="260" height="320" as="geometry"/>
                </mxCell>
                <mxCell id="4" value="2k" style="shape=parallelogram;html=1;strokeWidth=2;perimeter=parallelogramPerimeter;whiteSpace=wrap;rounded=1;arcSize=0;size=0.23;flipH=1;rotation=0;direction=north;fontSize=18;" parent="1" vertex="1">
                    <mxGeometry x="200" y="157.5" width="90" height="100" as="geometry"/>
                </mxCell>
                <mxCell id="5" value="2k" style="shape=parallelogram;html=1;strokeWidth=2;perimeter=parallelogramPerimeter;whiteSpace=wrap;rounded=1;arcSize=18;size=0.22499999999999998;flipH=1;rotation=0;direction=south;fontSize=18;" parent="1" vertex="1">
                    <mxGeometry x="525" y="157.5" width="90" height="100" as="geometry"/>
                </mxCell>
                <mxCell id="7" value="" style="endArrow=classic;html=1;exitX=0.5;exitY=1;exitDx=0;exitDy=0;entryX=0;entryY=0.5;entryDx=0;entryDy=0;" parent="1" source="4" edge="1">
                    <mxGeometry width="50" height="50" relative="1" as="geometry">
                        <mxPoint x="440" y="207" as="sourcePoint"/>
                        <mxPoint x="520" y="207" as="targetPoint"/>
                    </mxGeometry>
                </mxCell>
                <mxCell id="9" value="Display" style="text;html=1;strokeColor=none;fillColor=none;align=center;verticalAlign=middle;whiteSpace=wrap;rounded=0;strokeWidth=2;fontSize=18;" parent="1" vertex="1">
                    <mxGeometry x="540" y="257.5" width="60" height="30" as="geometry"/>
                </mxCell>
                <mxCell id="10" value="Frame Buffer1" style="text;html=1;strokeColor=none;fillColor=none;align=center;verticalAlign=middle;whiteSpace=wrap;rounded=0;strokeWidth=2;fontSize=18;" parent="1" vertex="1">
                    <mxGeometry x="215" y="257.5" width="60" height="30" as="geometry"/>
                </mxCell>
                <mxCell id="13" value="4k" style="shape=parallelogram;html=1;strokeWidth=2;perimeter=parallelogramPerimeter;whiteSpace=wrap;rounded=1;arcSize=0;size=0.23;flipH=1;rotation=0;direction=north;fontSize=18;" parent="1" vertex="1">
                    <mxGeometry x="200" y="300" width="90" height="100" as="geometry"/>
                </mxCell>
                <mxCell id="15" value="" style="endArrow=classic;html=1;exitX=0.5;exitY=1;exitDx=0;exitDy=0;" parent="1" source="13" edge="1">
                    <mxGeometry width="50" height="50" relative="1" as="geometry">
                        <mxPoint x="440" y="349.5" as="sourcePoint"/>
                        <mxPoint x="420" y="350" as="targetPoint"/>
                    </mxGeometry>
                </mxCell>
                <mxCell id="16" value="Display Plug" style="text;html=1;strokeColor=none;fillColor=none;align=center;verticalAlign=middle;whiteSpace=wrap;rounded=0;strokeWidth=2;fontSize=18;" parent="1" vertex="1">
                    <mxGeometry x="500" y="340" width="110" height="30" as="geometry"/>
                </mxCell>
                <mxCell id="17" value="Frame Buffer2" style="text;html=1;strokeColor=none;fillColor=none;align=center;verticalAlign=middle;whiteSpace=wrap;rounded=0;strokeWidth=2;fontSize=18;" parent="1" vertex="1">
                    <mxGeometry x="215" y="400" width="60" height="30" as="geometry"/>
                </mxCell>
                <mxCell id="18" value="" style="rounded=0;whiteSpace=wrap;html=1;fillColor=#000000;" parent="1" vertex="1">
                    <mxGeometry x="420" y="330" width="50" height="40" as="geometry"/>
                </mxCell>
                <mxCell id="19" value="" style="curved=1;endArrow=classic;html=1;entryX=0.25;entryY=1;entryDx=0;entryDy=0;exitX=0.75;exitY=1;exitDx=0;exitDy=0;dashed=1;dashPattern=8 8;startSize=6;endSize=13;" parent="1" source="13" target="4" edge="1">
                    <mxGeometry width="50" height="50" relative="1" as="geometry">
                        <mxPoint x="410" y="630" as="sourcePoint"/>
                        <mxPoint x="460" y="580" as="targetPoint"/>
                        <Array as="points">
                            <mxPoint x="470" y="280"/>
                        </Array>
                    </mxGeometry>
                </mxCell>
                <mxCell id="20" value="Mirroring" style="text;html=1;strokeColor=none;fillColor=none;align=center;verticalAlign=middle;whiteSpace=wrap;rounded=0;fontSize=19;" parent="1" vertex="1">
                    <mxGeometry x="310" y="265" width="100" height="30" as="geometry"/>
                </mxCell>
            </root>
        </mxGraphModel>
    </diagram>
</mxfile>